# xmcd CD database file
#
# Track frame offsets:
#	150
#	13468
#	24553
#	38235
#	54843
#	80433
#	94483
#	104388
#	124820
#	146995
#	162555
#
# Disc length: 2383 seconds
#
# Revision: 3
# Processed by: cddbd v1.5.2PL0 Copyright (c) Steve Scherf et al.
# Submitted via: CDex 1.51
#
DISCID=9a094d0b
DTITLE=Otis Rush - Mourning In The Morning
DYEAR=1969
DGENRE=Blues
TTITLE0=Me
TTITLE1=Working Man
TTITLE2=You're Killing My Love
TTITLE3=Feel So Bad
TTITLE4=Gambler's Blues
TTITLE5=Baby, I Love You
TTITLE6=My Old Lady
TTITLE7=My Love Will Never Die
TTITLE8=Reap What You Sow
TTITLE9=It Takes Time
TTITLE10=Can't Wait No Longer
EXTD=YEAR: 1969
EXTT0=
EXTT1=
EXTT2=
EXTT3=
EXTT4=
EXTT5=
EXTT6=
EXTT7=
EXTT8=
EXTT9=
EXTT10=
PLAYORDER=
